<?xml version="1.0" encoding="utf-8"?>
<!-- Generator: Adobe Illustrator 25.4.1, SVG Export Plug-In . SVG Version: 6.00 Build 0)  -->
<svg version="1.1" id="Layer_1" xmlns="http://www.w3.org/2000/svg" xmlns:xlink="http://www.w3.org/1999/xlink" x="0px" y="0px"
	 viewBox="0 0 252.1 235.1" style="enable-background:new 0 0 252.1 235.1;" xml:space="preserve">
<style type="text/css">
	.st0{fill:#EA2B94;}
</style>
<desc>Created with Fabric.js 1.7.22</desc>
<g transform="translate(128 128) scale(0.72 0.72)">
	<g transform="translate(-175.05 -175.05000000000004) scale(3.89 3.89)">
		<path class="st0" d="M84,34.3V28h5.3V16.3l-45-17l-45,17V28h5.3v6.3h4.8v30.9H4.6v6.3h-5.3v11.8h90V71.4H84v-6.3h-4.8V34.3H84z
			 M81,31.3H65.6V28H81V31.3z M62.6,65.2v6.3H55v-6.3h-4.8V34.3H55V28h7.7v6.3h4.8v30.9H62.6z M26,34.3V28h7.7v6.3h4.8v30.9h-4.8
			v6.3H26v-6.3h-4.8V34.3H26z M41.4,65.2V34.3h5.7v30.9H41.4z M36.6,31.3V28H52v3.3H36.6z M36.6,68.2H52v3.3H36.6V68.2z M2.3,18.3
			l42-15.8l42,15.8V25h-84V18.3z M7.6,28H23v3.3H7.6V28z M12.4,34.3h5.7v30.9h-5.7C12.4,65.2,12.4,34.3,12.4,34.3z M7.6,68.2H23v3.3
			H7.6V68.2z M86.3,80.2h-84v-5.8h84V80.2z M81,71.4H65.6v-3.3H81V71.4z M76.1,65.2h-5.7V34.3h5.7L76.1,65.2L76.1,65.2z"/>
	</g>
</g>
</svg>
