<svg id="Layer_1" data-name="Layer 1" xmlns="http://www.w3.org/2000/svg" viewBox="0 0 252.07202 252.07202"><path d="M128,1.964A126.036,126.036,0,1,0,254.036,128,126.03534,126.03534,0,0,0,128,1.964Zm0,233.86682A107.83081,107.83081,0,1,1,235.83081,128,107.83068,107.83068,0,0,1,128,235.83081Z" transform="translate(-1.96399 -1.96399)" fill="#ea2b94"/><path d="M168.2335,93.35411c0-11.99863-10.38257-21.75942-23.14581-21.75942h-9.4359V61.18411H118.847V71.59469H94.76851V182.94891H118.847v10.41058h16.8048V182.94891h9.4359c12.76324,0,23.14581-9.76079,23.14581-21.76222V140.626a20.835,20.835,0,0,0-4.88459-13.357,20.835,20.835,0,0,0,4.88459-13.357Zm-16.8048,67.83537c0,2.686-2.90443,4.95742-6.341,4.95742H111.5733V135.67419h33.51438c3.43658,0,6.341,2.27145,6.341,4.95742v20.55787Zm0-47.2747c0,2.686-2.90443,4.95462-6.341,4.95462H111.5733V88.39949h33.51438c3.43658,0,6.341,2.26864,6.341,4.95462v20.56067Z" transform="translate(-1.96399 -1.96399)" fill="#ea2b94"/></svg>