<svg id="Layer_1" data-name="Layer 1" xmlns="http://www.w3.org/2000/svg" viewBox="0 0 252.07202 252.07202"><path d="M74.92764,65.11364a4.19915,4.19915,0,0,0-4.2012,4.2012c0,2.44509-1.49,4.50929-3.25453,4.50929H45.60606c-1.7645,0-3.25453-2.06419-3.25453-4.50929V43.76594c0-2.4451,1.49-4.50929,3.25453-4.50929H67.47191c1.7645,0,3.25453,2.06419,3.25453,4.50929a4.2012,4.2012,0,0,0,8.4024,0c0-7.11963-5.2291-12.91169-11.65693-12.91169H60.73879V26.21892a4.2012,4.2012,0,0,0-8.4024,0v4.63533H45.60606c-6.42783,0-11.65693,5.792-11.65693,12.91168v25.5489c0,7.11964,5.22909,12.91169,11.65693,12.91169h6.73033v4.63533a4.2012,4.2012,0,0,0,8.4024,0V82.22652h6.73312c6.42783,0,11.65693-5.792,11.65693-12.91169A4.19914,4.19914,0,0,0,74.92764,65.11364Z" transform="translate(-1.96399 -1.96399)" fill="#ea2b94"/><path d="M217.84968,65.11364a4.20093,4.20093,0,0,0-4.2012,4.2012c0,2.44509-1.49,4.50929-3.25454,4.50929H188.52809c-1.76449,0-3.25453-2.06419-3.25453-4.50929V43.76594c0-2.4451,1.49-4.50929,3.25453-4.50929h21.86585c1.7645,0,3.25454,2.06419,3.25454,4.50929a4.2012,4.2012,0,0,0,8.4024,0c0-7.11963-5.22909-12.91169-11.65694-12.91169h-6.73032V26.21892a4.2012,4.2012,0,1,0-8.4024,0v4.63533h-6.73033c-6.42783,0-11.65692,5.792-11.65692,12.91168v25.5489c0,7.11964,5.22909,12.91169,11.65692,12.91169h6.73033v4.63533a4.2012,4.2012,0,0,0,8.4024,0V82.22652h6.73032c6.42783,0,11.65694-5.792,11.65694-12.91169A4.20094,4.20094,0,0,0,217.84968,65.11364Z" transform="translate(-1.96399 -1.96399)" fill="#ea2b94"/><path d="M74.92764,208.03286a4.20094,4.20094,0,0,0-4.2012,4.2012c0,2.4423-1.49,4.50649-3.25453,4.50649H45.60606c-1.7645,0-3.25453-2.06419-3.25453-4.50649V186.68515c0-2.4451,1.49-4.50929,3.25453-4.50929H67.47191c1.7645,0,3.25453,2.06419,3.25453,4.50929a4.2012,4.2012,0,1,0,8.4024,0c0-7.11963-5.2291-12.91169-11.65693-12.91169H60.73879v-4.63252a4.2012,4.2012,0,0,0-8.4024,0v4.63252H45.60606c-6.42783,0-11.65693,5.79206-11.65693,12.91169v25.54891c0,7.11963,5.22909,12.90889,11.65693,12.90889h6.73033v4.63532a4.2012,4.2012,0,0,0,8.4024,0V225.143h6.73312c6.42783,0,11.65693-5.78926,11.65693-12.90889A4.201,4.201,0,0,0,74.92764,208.03286Z" transform="translate(-1.96399 -1.96399)" fill="#ea2b94"/><path d="M217.84968,208.03286a4.20272,4.20272,0,0,0-4.2012,4.2012c0,2.4423-1.49,4.50649-3.25454,4.50649H188.52809c-1.76449,0-3.25453-2.06419-3.25453-4.50649V186.68515c0-2.4451,1.49-4.50929,3.25453-4.50929h21.86585c1.7645,0,3.25454,2.06419,3.25454,4.50929a4.2012,4.2012,0,0,0,8.4024,0c0-7.11963-5.22909-12.91169-11.65694-12.91169h-6.73032v-4.63252a4.2012,4.2012,0,0,0-8.4024,0v4.63252h-6.73033c-6.42783,0-11.65692,5.79206-11.65692,12.91169v25.54891c0,7.11963,5.22909,12.90889,11.65692,12.90889h6.73033v4.63532a4.2012,4.2012,0,1,0,8.4024,0V225.143h6.73032c6.42783,0,11.65694-5.78926,11.65694-12.90889A4.20275,4.20275,0,0,0,217.84968,208.03286Z" transform="translate(-1.96399 -1.96399)" fill="#ea2b94"/><path d="M203.66082,145.09609V101.83493h-8.4024v43.22194a54.54711,54.54711,0,0,0-47.77885,38.00405h8.88974a46.17264,46.17264,0,1,1,0,32.80019h-8.88974a54.53813,54.53813,0,1,0,56.18126-70.765Z" transform="translate(-1.96399 -1.96399)" fill="#ea2b94"/><path d="M199.45962,1.964a54.54286,54.54286,0,0,0-54.36353,50.3752H101.83493v8.4024h43.22194a54.58465,54.58465,0,0,0,38.79949,48.08133V99.94158a46.17011,46.17011,0,1,1,31.20651.00281v8.88134A54.56892,54.56892,0,0,0,199.45962,1.964Z" transform="translate(-1.96399 -1.96399)" fill="#ea2b94"/><path d="M56.54039,102.71438A46.17405,46.17405,0,1,1,99.6307,40.1389h8.88974a54.53813,54.53813,0,1,0-56.18125,70.765v43.26115h8.4024V110.94313a54.54711,54.54711,0,0,0,47.77884-38.00406H99.63069A46.18333,46.18333,0,0,1,56.54039,102.71438Z" transform="translate(-1.96399 -1.96399)" fill="#ea2b94"/><path d="M154.16507,195.25842H110.94313a54.5913,54.5913,0,0,0-38.79949-48.08414v8.88134a46.174,46.174,0,1,1-31.20651,0v-8.88134a54.56424,54.56424,0,1,0,69.96679,56.48655h43.26115Z" transform="translate(-1.96399 -1.96399)" fill="#ea2b94"/></svg>