<svg id="Layer_1" data-name="Layer 1" xmlns="http://www.w3.org/2000/svg" viewBox="0 0 252.06672 176.11794"><path d="M142.589,130.5265H56.11993a2.8008,2.8008,0,1,1,0-5.6016H142.589a2.8008,2.8008,0,0,1,0,5.6016Z" fill="#ea2b94"/><path d="M106.06379,151.11239H56.11993a2.8008,2.8008,0,1,1,0-5.6016H106.0666a2.8008,2.8008,0,1,1-.00281,5.6016Z" fill="#ea2b94"/><path d="M142.589,151.11239H119.10992a2.8008,2.8008,0,0,1,0-5.6016H142.589a2.8008,2.8008,0,0,1,0,5.6016Z" fill="#ea2b94"/><path d="M225.04458,151.11239H182.55645a2.79823,2.79823,0,0,1-2.8008-2.8008V127.72571a2.79824,2.79824,0,0,1,2.8008-2.8008h42.48813a2.79824,2.79824,0,0,1,2.8008,2.8008v20.58588A2.80181,2.80181,0,0,1,225.04458,151.11239Zm-39.68733-5.6016h36.88653V130.52651H185.35725Z" fill="#ea2b94"/><path d="M243.94719,32.61333H227.62132l-2.235-24.97194a8.41993,8.41993,0,0,0-9.1054-7.60977L7.64368,18.71856A8.39087,8.39087,0,0,0,.0339,27.824L11.33793,154.042a8.40428,8.40428,0,0,0,8.35479,7.64339c.24927,0,.49854-.01119.75062-.03361l5.37193-.48173v6.82274a8.13475,8.13475,0,0,0,8.12512,8.12513h210.0012a8.13476,8.13476,0,0,0,8.12512-8.12513V40.74125A8.12876,8.12876,0,0,0,243.94719,32.61333ZM19.94759,156.07539a2.76958,2.76958,0,0,1-3.03046-2.52912L5.6131,27.32542a2.79269,2.79269,0,0,1,2.52912-3.02766L216.77661,5.61362a2.7963,2.7963,0,0,1,3.02767,2.52912l2.19022,24.4706H33.946a8.13474,8.13474,0,0,0-8.12512,8.12512v114.8076Zm11.47208-91.3957h215.051v33.534H31.41967Zm215.051,103.31592a2.52571,2.52571,0,0,1-2.52352,2.52353H33.946a2.52571,2.52571,0,0,1-2.52352-2.52353V103.81527H246.47071ZM31.41967,59.07809V40.74125a2.52571,2.52571,0,0,1,2.52352-2.52352h210.0012a2.5257,2.5257,0,0,1,2.52352,2.52352V59.07809Z" fill="#ea2b94"/></svg>