<svg id="Layer_1" data-name="Layer 1" xmlns="http://www.w3.org/2000/svg" viewBox="0 0 167.97772 252.07202"><path d="M83.9453,150.4898A4.14311,4.14311,0,0,1,81.587,149.756L9.11352,99.78131a4.15783,4.15783,0,0,1-.90746-5.98811L80.67957,1.58805A4.15186,4.15186,0,0,1,83.9453,0h0A4.15189,4.15189,0,0,1,87.211,1.58805L159.68453,93.7932a4.1553,4.1553,0,0,1-.91025,5.98811L86.30357,149.756A4.16428,4.16428,0,0,1,83.9453,150.4898ZM17.47391,95.45127l66.47139,45.8351,66.47139-45.83509L83.9453,10.87831Z" fill="#ea2b94"/><path d="M83.9453,252.072h-.014a4.15854,4.15854,0,0,1-3.31335-1.66648L.82875,143.69786A4.15495,4.15495,0,0,1,6.702,137.92542l77.27689,59.96232,77.3413-58.4751a4.15309,4.15309,0,0,1,5.81165,5.82565L87.25585,250.428A4.16413,4.16413,0,0,1,83.9453,252.072ZM25.88191,163.32586l58.0886,77.68581,58.31266-76.78954L86.452,206.43579a4.152,4.152,0,0,1-5.05265-.03082Z" fill="#ea2b94"/></svg>