<svg id="Layer_1" data-name="Layer 1" xmlns="http://www.w3.org/2000/svg" viewBox="0 0 169.72568 252.07202"><path d="M107.73,195.86836a4.20273,4.20273,0,0,0-4.2012,4.2012c0,3.59622-2.32186,6.6351-5.07505,6.6351H71.25233c-2.74758,0-5.07225-3.03886-5.07225-6.6351V168.28328c0-3.59623,2.32467-6.6351,5.07225-6.6351H98.4537c2.75038,0,5.07505,3.03887,5.07505,6.6351a4.2012,4.2012,0,0,0,8.4024,0c0-8.29317-6.04413-15.0375-13.47745-15.0375H89.057v-6.78914a4.2012,4.2012,0,0,0-8.4024,0v6.78914H71.25514c-7.43052,0-13.47465,6.74433-13.47465,15.0375v31.78628c0,8.29316,6.04413,15.0375,13.47465,15.0375h9.39948v6.78915a4.2012,4.2012,0,0,0,8.4024,0v-6.78915h9.39949c7.43052,0,13.47745-6.74432,13.47745-15.0375A4.20513,4.20513,0,0,0,107.73,195.86836Z" fill="#ea2b94"/><path d="M169.72568,79.71358a16.97286,16.97286,0,1,0-21.118,16.4435,4.17548,4.17548,0,0,0-.05321.53214v18.05116l-17.05967,20.11534a67.90352,67.90352,0,0,0-19.558-12.9453V80.57622l21.99189-28.21806a4.2019,4.2019,0,0,0,.885-2.58234V33.9457a4.17727,4.17727,0,0,0-.05321-.53215,16.9687,16.9687,0,1,0-8.29317.0028,4.17728,4.17728,0,0,0-.05322.53215V48.33341L104.42224,76.55147a4.20187,4.20187,0,0,0-.88506,2.58234v39.76857a68.10051,68.10051,0,0,0-32.45287-1.22115V81.39686a4.18731,4.18731,0,0,0-.88786-2.58234L56.54535,61.29831V33.9485a4.17546,4.17546,0,0,0-.05322-.53215,16.97146,16.97146,0,1,0-8.29317,0,4.17546,4.17546,0,0,0-.05321.53215V62.74072a4.1873,4.1873,0,0,0,.88785,2.58234L62.6847,82.83927v37.16662a67.849,67.849,0,0,0-24.451,14.847L21.17124,114.73758V81.42767a4.17543,4.17543,0,0,0-.05321-.53216,16.97146,16.97146,0,1,0-8.29316,0,4.17544,4.17544,0,0,0-.05322.53216V116.278a4.19928,4.19928,0,0,0,.99709,2.71678l18.28642,21.56336a3.78437,3.78437,0,0,0,.43693.41172,67.89,67.89,0,1,0,104.74151,0,4.00072,4.00072,0,0,0,.43412-.41172l18.28642-21.56336a4.19923,4.19923,0,0,0,.9971-2.71678V96.68641a4.17912,4.17912,0,0,0-.05321-.53214A16.963,16.963,0,0,0,169.72568,79.71358ZM122.03645,16.97285a8.57046,8.57046,0,1,1,8.57045,8.57045A8.5794,8.5794,0,0,1,122.03645,16.97285Zm-78.27116,0a8.57045,8.57045,0,1,1,8.57044,8.57045A8.57939,8.57939,0,0,1,43.76529,16.97285ZM8.38838,64.45482a8.57045,8.57045,0,1,1,8.57044,8.57044A8.57939,8.57939,0,0,1,8.38838,64.45482Zm76.46744,179.2148A59.49461,59.49461,0,1,1,144.35043,184.175,59.56154,59.56154,0,0,1,84.85582,243.66962Zm67.897-155.3828a8.57045,8.57045,0,1,1,8.57045-8.57044A8.57938,8.57938,0,0,1,152.75281,88.28682Z" fill="#ea2b94"/></svg>