<svg id="Layer_1" data-name="Layer 1" xmlns="http://www.w3.org/2000/svg" viewBox="0 0 252.07202 237.64228"><path d="M251.77512,62.56147c.03362-.10082.06723-.196.09242-.29968a5.5371,5.5371,0,0,0,.20448-1.42c0-.04761-.014-.09243-.014-.14-.0028-.08682-.01962-.168-.02521-.25487a5.50657,5.50657,0,0,0-.29128-1.43121c-.02521-.07282-.03921-.14564-.06722-.21846a5.56774,5.56774,0,0,0-.80944-1.392c-.03361-.04482-.04481-.098-.08122-.14L204.999,2.025c-.05041-.06162-.11763-.10643-.17084-.16525a5.40972,5.40972,0,0,0-.48173-.46493,5.29247,5.29247,0,0,0-.41453-.3361c-.05882-.042-.10643-.09522-.168-.13724-.12323-.08122-.25768-.13163-.38371-.20165-.154-.084-.30249-.17085-.46213-.24087a5.13609,5.13609,0,0,0-.68059-.23247c-.14005-.042-.27727-.09243-.42012-.12043a5.71515,5.71515,0,0,0-.87384-.098c-.08682-.0028-.168-.028-.25768-.028H51.3863c-.05881,0-.11763.0168-.17645.01961A5.57248,5.57248,0,0,0,50.24918.126c-.13164.028-.25487.07562-.38651.112a5.65264,5.65264,0,0,0-.71421.24367c-.154.06722-.29408.15124-.44253.22966-.13164.07282-.27167.12324-.40051.21006-.06442.042-.112.098-.17365.14284-.14.10083-.26607.21006-.39771.3221a5.79823,5.79823,0,0,0-.49854.48173c-.05042.05882-.11484.10083-.16525.15965L1.28837,57.26516c-.03641.042-.04762.09523-.08123.14a5.638,5.638,0,0,0-.80943,1.3892c-.028.07282-.042.14844-.07.22126a5.483,5.483,0,0,0-.28848,1.42841c-.0056.08683-.02241.168-.02521.25487,0,.05042-.014.09523-.014.14284a5.54162,5.54162,0,0,0,.20446,1.4228c.02521.10083.05882.19606.09242.29409a5.61123,5.61123,0,0,0,.70581,1.47042c.0084.0112.0084.02521.0168.03641l120.4344,171.19611c.03362.0476.07843.08122.11484.126a5.78043,5.78043,0,0,0,.36411.45653c.07.07562.14844.13725.22125.20725a1.07416,1.07416,0,0,1,.08123.07843c.06721.06442.13164.13163.20446.19045.07842.06443.15684.12883.23807.19046.10923.08122.22406.15125.33889.22687.12884.08122.25207.17084.38651.24086.056.03082.11483.05041.17085.07842.11763.05883.23807.10924.36131.15965a5.46626,5.46626,0,0,0,.59377.19885c.07283.01962.14284.05041.21566.07.02241.0056.042.01679.06722.02241.03921.0084.07842.0056.11763.014a5.52054,5.52054,0,0,0,1.10072.12043h.0112a5.54344,5.54344,0,0,0,1.10072-.12043c.03921-.0084.07842-.0056.11763-.014.0224-.0056.042-.01679.06721-.02241.07563-.0168.14564-.05041.21846-.07a5.32824,5.32824,0,0,0,.58537-.19885c.12323-.05041.24367-.10084.36411-.15965.05881-.028.11763-.0532.17645-.08122.12884-.07.24927-.154.3725-.23246.12043-.07563.24087-.15125.3529-.23527.07842-.05883.154-.12043.22967-.18206.07562-.06442.14563-.13443.21846-.20445.0196-.0168.03641-.03361.056-.05041.08123-.07842.16806-.14565.24368-.22967a5.55122,5.55122,0,0,0,.3557-.44814c.03641-.0476.084-.08122.11763-.13162L251.05253,64.06549c.0084-.0112.0084-.02521.0168-.03641A5.6357,5.6357,0,0,0,251.77512,62.56147ZM50.86813,15.00389,77.32729,55.24018H17.519Zm106.492,51.43949L126.036,206.391,94.70905,66.44338Zm-58.94-11.2032L126.036,15.42961,153.6519,55.24018Zm38.32054-44.037h53.55691L164.23332,50.83452Zm-48.902,39.63132L61.77445,11.2032h53.5569ZM83.23138,66.44338l31.19251,139.351L16.39028,66.44338Zm85.61206,0h66.8383l-98.028,139.3482Zm5.90128-11.2032,26.462-40.23349,33.34354,40.23349Z" fill="#ea2b94"/></svg>