<svg id="Layer_1" data-name="Layer 1" xmlns="http://www.w3.org/2000/svg" viewBox="0 0 235.76077 253.07272"><path d="M206.47345,150.52837a54.62014,54.62014,0,0,0-41.60868-6.33262,55.50913,55.50913,0,0,0-8.64888,2.96045l-12.34873-23.59674,11.49169-19.01183a54.51082,54.51082,0,0,0,24.79267,5.98252,55.35594,55.35594,0,0,0,13.259-1.61886A54.99677,54.99677,0,0,0,233.6412,42.35307a54.99155,54.99155,0,1,0-85.22,57.95135l-11.51409,19.04824-26.6328.03081a55.652,55.652,0,0,0-1.3976-9.03257,54.97234,54.97234,0,1,0-53.49529,68.17988,55.24138,55.24138,0,0,0,13.26179-1.62166,54.94433,54.94433,0,0,0,41.6703-49.3921l26.42555-.03082,12.2563,23.41469a54.98443,54.98443,0,1,0,57.478-.37252Zm-110.89209-2.77A46.86108,46.86108,0,1,1,44.26231,78.01565a47.15705,47.15705,0,0,1,11.29843-1.38079,46.87713,46.87713,0,0,1,40.02062,71.12351ZM134.745,66.73122A46.86076,46.86076,0,0,1,169.02673,10.015a47.15662,47.15662,0,0,1,11.29843-1.3808,46.88,46.88,0,0,1,40.02062,71.12353A46.85962,46.85962,0,0,1,134.745,66.73122Zm83.38542,155.10552a46.89049,46.89049,0,1,1-15.86374-64.34838A46.92376,46.92376,0,0,1,218.13037,221.83674Z" fill="#ea2b94" stroke="#ea2b94" stroke-miterlimit="10"/></svg>