<?xml version="1.0" encoding="utf-8"?>
<!-- Generator: Adobe Illustrator 25.4.1, SVG Export Plug-In . SVG Version: 6.00 Build 0)  -->
<svg version="1.1" id="Layer_1" xmlns="http://www.w3.org/2000/svg" xmlns:xlink="http://www.w3.org/1999/xlink" x="0px" y="0px"
	 viewBox="0 0 197.3 253.1" style="enable-background:new 0 0 197.3 253.1;" xml:space="preserve">
<style type="text/css">
	.st0{fill:#EA2B94;stroke:#EA2B94;stroke-miterlimit:10;}
</style>
<desc>Created with Fabric.js 1.7.22</desc>
<g transform="translate(128 128) scale(0.72 0.72)">
	<g transform="translate(-175.05 -175.05000000000004) scale(3.89 3.89)">
		<path class="st0" d="M34.5,89.5c-1,0-1.9-0.2-2.8-0.5C12.1,82.5-0.5,67-0.5,49.4v-31c0-3.2,2.3-5.9,5.4-6.4l0,0
			c9.9-1.8,18.6-5.5,25.7-11.1c2.3-1.8,5.6-1.8,8,0c7.1,5.5,15.8,9.3,25.7,11.1c3.1,0.6,5.4,3.3,5.4,6.4v31
			C69.6,67,56.9,82.5,37.3,89C36.4,89.3,35.5,89.5,34.5,89.5z M34.5,5.5c-0.1,0-0.2,0-0.3,0.1c-7.9,6.1-17.4,10.2-28.3,12.2
			c0,0,0,0,0,0c-0.2,0-0.4,0.3-0.4,0.5v31c0,15,11,28.3,28.1,33.9c0.6,0.2,1.3,0.2,1.9,0c17.1-5.7,28.1-19,28.1-33.9v-31
			c0-0.3-0.2-0.5-0.4-0.5c-10.9-2-20.4-6.1-28.3-12.2C34.7,5.5,34.6,5.5,34.5,5.5z M5.4,14.9L5.4,14.9L5.4,14.9z"/>
		<path class="st0" d="M43.3,39.9l-1.8-1.8c-0.6-0.6-1.6-0.6-2.3,0L33,44.3l-3.2-3.2c-0.6-0.6-1.6-0.6-2.3,0l-1.8,1.8
			c-0.6,0.6-0.6,1.6,0,2.3l6.2,6.2c0.6,0.6,1.6,0.6,2.3,0l9.2-9.2C43.9,41.5,43.9,40.5,43.3,39.9z"/>
		<path class="st0" d="M34.5,66.1c-12.4,0-22.6-10.1-22.6-22.6S22.1,21,34.5,21s22.6,10.1,22.6,22.6S47,66.1,34.5,66.1z M34.5,27
			c-9.1,0-16.6,7.4-16.6,16.6s7.4,16.6,16.6,16.6s16.6-7.4,16.6-16.6S43.7,27,34.5,27z"/>
	</g>
</g>
</svg>
