<?xml version="1.0" encoding="utf-8"?>
<!-- Generator: Adobe Illustrator 25.4.1, SVG Export Plug-In . SVG Version: 6.00 Build 0)  -->
<svg version="1.1" id="Layer_1" xmlns="http://www.w3.org/2000/svg" xmlns:xlink="http://www.w3.org/1999/xlink" x="0px" y="0px"
	 viewBox="0 0 10.4 20" style="enable-background:new 0 0 10.4 20;" xml:space="preserve">
<style type="text/css">
	.st0{fill:#FFFFFF;}
</style>
<path class="st0" d="M9.4,7H7V5c0-1,0.1-1.7,1.6-1.7h0.9c0.6,0,1-0.4,1-1V1.1c0-0.5-0.4-1-0.9-1C8.9,0,8.3,0,7.7,0C5,0,3,1.7,3,4.7
	V7H1C0.4,7,0,7.4,0,8v2c0,0.6,0.4,1,1,1l2,0v8c0,0.6,0.4,1,1,1h2c0.6,0,1-0.4,1-1v-8l2.2,0c0.5,0,0.9-0.4,1-0.9l0.2-2
	C10.5,7.5,10,7,9.4,7z"/>
</svg>
