<?xml version="1.0" encoding="utf-8"?>
<!-- Generator: Adobe Illustrator 25.4.1, SVG Export Plug-In . SVG Version: 6.00 Build 0)  -->
<svg version="1.1" id="Layer_1" xmlns="http://www.w3.org/2000/svg" xmlns:xlink="http://www.w3.org/1999/xlink" x="0px" y="0px"
	 viewBox="0 0 18 18" style="enable-background:new 0 0 18 18;" xml:space="preserve">
<style type="text/css">
	.st0{fill:#FFFFFF;}
</style>
<path class="st0" d="M5,0C2.2,0,0,2.2,0,5v8c0,2.8,2.2,5,5,5h8c2.8,0,5-2.2,5-5V5c0-2.8-2.2-5-5-5H5z M5,2h8c1.7,0,3,1.3,3,3v8
	c0,1.7-1.3,3-3,3H5c-1.7,0-3-1.3-3-3V5C2,3.3,3.3,2,5,2z M14,3c-0.6,0-1,0.4-1,1s0.4,1,1,1s1-0.4,1-1S14.6,3,14,3z M9,4
	C6.2,4,4,6.2,4,9s2.2,5,5,5s5-2.2,5-5S11.8,4,9,4z M9,6c1.7,0,3,1.3,3,3s-1.3,3-3,3s-3-1.3-3-3S7.3,6,9,6z"/>
</svg>
