<svg id="Layer_1" data-name="Layer 1" xmlns="http://www.w3.org/2000/svg" viewBox="0 0 26.001 21.129">
  <path d="M26.001,2.501a10.64829,10.64829,0,0,1-3.064.84A5.34318,5.34318,0,0,0,25.282.39a10.69568,10.69568,0,0,1-3.388,1.295,5.33571,5.33571,0,0,0-9.227,3.649,5.39354,5.39354,0,0,0,.138,1.215A15.14336,15.14336,0,0,1,1.81.975,5.34393,5.34393,0,0,0,3.461,8.097,5.32339,5.32339,0,0,1,1.045,7.43v.067a5.335,5.335,0,0,0,4.279,5.23,5.33628,5.33628,0,0,1-1.406.187,5.43124,5.43124,0,0,1-1.003-.095,5.34073,5.34073,0,0,0,4.983,3.705,10.6988,10.6988,0,0,1-6.625,2.284A10.7176,10.7176,0,0,1,0,18.733a15.10165,15.10165,0,0,0,8.177,2.396A15.07227,15.07227,0,0,0,23.353,5.952q0-.3465-.015-.69A10.8546,10.8546,0,0,0,26.001,2.501Z" fill="#fff"/>
</svg>
