<svg xmlns="http://www.w3.org/2000/svg" xmlns:xlink="http://www.w3.org/1999/xlink" viewBox="0 0 2800.90862 2800"><defs><linearGradient id="linear-gradient" x1="511.4166" y1="2225.89701" x2="2690.0038" y2="2225.89701" gradientUnits="userSpaceOnUse"><stop offset="0" stop-color="#ff9085"/><stop offset="1" stop-color="#fb6fbb"/></linearGradient><linearGradient id="linear-gradient-2" x1="1775.45612" y1="1386.18596" x2="831.52937" y2="2929.30186" gradientUnits="userSpaceOnUse"><stop offset="0" stop-color="#40447e"/><stop offset="0.9964" stop-color="#3c3b6b"/></linearGradient><linearGradient id="linear-gradient-3" x1="599.7725" y1="1649.84199" x2="655.3914" y2="1649.84199" xlink:href="#linear-gradient"/><linearGradient id="linear-gradient-4" x1="651.3969" y1="2606.45629" x2="1702.727" y2="2606.45629" gradientUnits="userSpaceOnUse"><stop offset="0" stop-color="#444b8c"/><stop offset="0.9964" stop-color="#26264f"/></linearGradient><linearGradient id="linear-gradient-5" x1="694.5775" y1="2599.54737" x2="1667.1737" y2="2599.54737" gradientUnits="userSpaceOnUse"><stop offset="0" stop-color="#aa80f9"/><stop offset="0.9964" stop-color="#6165d7"/></linearGradient><linearGradient id="linear-gradient-6" x1="651.3969" y1="3010.69567" x2="2235.1828" y2="3010.69567" xlink:href="#linear-gradient-4"/><linearGradient id="linear-gradient-7" x1="864.7212" y1="1283.99049" x2="3043.3087" y2="1283.99049" xlink:href="#linear-gradient-5"/><linearGradient id="linear-gradient-8" x1="864.7212" y1="731.35866" x2="3043.3087" y2="731.35866" xlink:href="#linear-gradient-2"/><linearGradient id="linear-gradient-9" x1="953.0774" y1="704.18567" x2="1008.697" y2="704.18567" xlink:href="#linear-gradient-5"/><linearGradient id="linear-gradient-10" x1="2799.97617" y1="3047.39974" x2="2822.51429" y2="3334.24728" gradientTransform="translate(-626.2627)" gradientUnits="userSpaceOnUse"><stop offset="0.0036" stop-color="#26264f"/><stop offset="1" stop-color="#444b8c"/></linearGradient><linearGradient id="linear-gradient-11" x1="2858.16075" y1="3207.0981" x2="2854.06321" y2="2910.01318" gradientTransform="translate(-626.2627)" gradientUnits="userSpaceOnUse"><stop offset="0" stop-color="#ab316d"/><stop offset="1" stop-color="#792d3d"/></linearGradient><linearGradient id="linear-gradient-12" x1="3225.8911" y1="3013.93741" x2="3248.42894" y2="3300.78153" xlink:href="#linear-gradient-10"/><linearGradient id="linear-gradient-13" x1="3248.49227" y1="3201.71394" x2="3244.39467" y2="2904.62426" xlink:href="#linear-gradient-11"/><linearGradient id="linear-gradient-14" x1="2160.99694" y1="2725.8239" x2="2380.65511" y2="2725.8239" gradientUnits="userSpaceOnUse"><stop offset="0" stop-color="#311944"/><stop offset="1" stop-color="#6b3976"/></linearGradient><linearGradient id="linear-gradient-15" x1="2176.1859" y1="2725.83316" x2="2380.65449" y2="2725.83316" gradientTransform="matrix(1, 0, 0, 1, 0, 0)" xlink:href="#linear-gradient-10"/><linearGradient id="linear-gradient-16" x1="2221.9787" y1="2704.1715" x2="2664.17478" y2="2704.1715" xlink:href="#linear-gradient-14"/><linearGradient id="linear-gradient-17" x1="-1537.65745" y1="1429.67858" x2="-1658.92692" y2="1793.48804" gradientTransform="matrix(-0.9998, 0.0218, 0.0218, 0.9998, 210.2509, 0.1062)" xlink:href="#linear-gradient-11"/><linearGradient id="linear-gradient-18" x1="2042.1147" y1="1839.15138" x2="2605.97654" y2="4480.39556" gradientTransform="translate(31.9022 3.95) rotate(-1.2491)" gradientUnits="userSpaceOnUse"><stop offset="0" stop-color="#ffc444"/><stop offset="0.9964" stop-color="#f36f56"/></linearGradient><linearGradient id="linear-gradient-19" x1="2346.81206" y1="2029.10732" x2="2517.6031" y2="2029.10732" xlink:href="#linear-gradient-18"/><linearGradient id="linear-gradient-20" x1="2335.60782" y1="2029.10713" x2="2506.39872" y2="2029.10713" gradientTransform="translate(31.9022 3.95) rotate(-1.2491)" gradientUnits="userSpaceOnUse"><stop offset="0" stop-color="#fcb148"/><stop offset="0.05207" stop-color="#fdba46"/><stop offset="0.14245" stop-color="#ffc244"/><stop offset="0.31827" stop-color="#ffc444"/><stop offset="0.48489" stop-color="#fdb946"/><stop offset="0.77539" stop-color="#f99c4d"/><stop offset="0.86581" stop-color="#f8924f"/><stop offset="1" stop-color="#f8924f"/></linearGradient><linearGradient id="linear-gradient-21" x1="2237.69105" y1="1797.39933" x2="2801.55264" y2="4438.64228" xlink:href="#linear-gradient-18"/><linearGradient id="linear-gradient-22" x1="993.8516" y1="1723.39792" x2="1061.30691" y2="1830.61346" gradientTransform="translate(1281.1684 -23.2851) rotate(-1.2491)" xlink:href="#linear-gradient"/><linearGradient id="linear-gradient-23" x1="1814.81135" y1="2433.01458" x2="1735.85101" y2="2560.74455" gradientTransform="matrix(0.9519, -0.3063, 0.3063, 0.9519, -104.9425, -119.7459)" xlink:href="#linear-gradient-11"/><linearGradient id="linear-gradient-24" x1="1042.31078" y1="2079.66472" x2="970.56292" y2="2195.72745" gradientTransform="translate(362.7311 402.2268) rotate(-31.49639)" xlink:href="#linear-gradient-11"/><linearGradient id="linear-gradient-25" x1="2146.36545" y1="1710.43937" x2="2353.7914" y2="2570.46208" xlink:href="#linear-gradient-20"/><linearGradient id="linear-gradient-26" x1="987.10283" y1="1160.50852" x2="327.95795" y2="1372.04796" gradientTransform="matrix(1, 0, 0, 1, 0, 0)" xlink:href="#linear-gradient-20"/><linearGradient id="linear-gradient-27" x1="1520.31259" y1="504.39598" x2="931.86861" y2="1802.61319" gradientUnits="userSpaceOnUse"><stop offset="0" stop-color="#ffdb44"/><stop offset="1" stop-color="#feef06"/></linearGradient><linearGradient id="linear-gradient-28" x1="1412.06806" y1="1875.17105" x2="1298.52653" y2="1254.89781" gradientTransform="matrix(1, 0, 0, 1, 0, 0)" xlink:href="#linear-gradient-20"/><linearGradient id="linear-gradient-29" x1="1171.33851" y1="871.19044" x2="1639.25823" y2="1864.49474" gradientTransform="matrix(1, 0, 0, 1, 0, 0)" xlink:href="#linear-gradient-20"/><linearGradient id="linear-gradient-30" x1="1076.3346" y1="1073.68685" x2="1503.7512" y2="1073.68685" xlink:href="#linear-gradient-27"/><linearGradient id="linear-gradient-31" x1="1033.6781" y1="935.47219" x2="1500.65367" y2="1926.77227" gradientTransform="matrix(1, 0, 0, 1, 0, 0)" xlink:href="#linear-gradient-20"/></defs><g style="isolation:isolate"><g id="Illustration"><path d="M1898.3482,498.2267c-303.2321,121.9951-332.2765,433.8455-605.3033,460.6084-237.898,23.3197-328.3225-202.4203-495.2489-161.9722-254.2759,61.6143-414.1447,675.0008-312.0212,1179.3594,105.4488,520.784,548.5043,1213.0994,1282.508,1260.3454,824.0766,53.0444,1447.6155-743.5258,1485.6869-1442.5641,4.1167-75.5979,28.432-709.0129-450.167-1083.1886C2779.888,692.1187,2308.2717,333.3075,1898.3482,498.2267Z" transform="translate(-454.54567 -455)" fill="#f4f7fa"/><path d="M511.4166,1696.5286V2696.7384c0,33.2077,28.1181,59.5305,62.7613,58.7979l2058.2291-43.5444a59.04657,59.04657,0,0,0,57.5968-58.7465V1696.2428Z" transform="translate(-454.54567 -455)" fill="url(#linear-gradient)"/><path d="M2632.407,1574.6175l-2058.2291-4.9113c-34.6432-.0827-62.7613,26.7682-62.7613,59.9752v102.4889l2178.5872-1.825v-98.0625A57.71772,57.71772,0,0,0,2632.407,1574.6175Z" transform="translate(-454.54567 -455)" fill="url(#linear-gradient-2)"/><path d="M655.3914,1649.8644c0,14.7203-12.4404,26.6512-27.7938,26.6471-15.3631-.004-27.8251-11.9541-27.8251-26.6919,0-14.7375,12.462-26.667,27.8251-26.6471C642.951,1623.193,655.3914,1635.1428,655.3914,1649.8644Z" transform="translate(-454.54567 -455)" fill="url(#linear-gradient-3)"/><polygon points="489.656 2162.407 331.258 2165.346 331.258 1418.731 489.656 1418.151 489.656 2162.407" fill="#fff" opacity="0.71"/><polygon points="489.656 2162.407 331.258 2165.346 331.258 1810.871 489.656 1809.051 489.656 2162.407" fill="#fff"/><polygon points="708.38 2158.35 551.366 2161.263 551.366 1417.924 708.38 1417.349 708.38 2158.35" fill="#fff" opacity="0.71"/><polygon points="708.38 2158.35 551.366 2161.263 551.366 1984.802 708.38 1982.445 708.38 2158.35" fill="#fff"/><polygon points="925.197 2154.328 769.551 2157.215 769.551 1417.125 925.197 1416.554 925.197 2154.328" fill="#fff" opacity="0.71"/><polygon points="925.197 2154.328 769.551 2157.215 769.551 2064.979 925.197 2062.38 925.197 2154.328" fill="#fff"/><polygon points="1140.136 2150.341 985.839 2153.203 985.839 1416.332 1140.136 1415.766 1140.136 2150.341" fill="#fff" opacity="0.71"/><polygon points="1140.136 2150.341 985.839 2153.203 985.839 1575.951 1140.136 1574.887 1140.136 2150.341" fill="#fff"/><polygon points="1353.217 2146.388 1200.251 2149.226 1200.251 1415.546 1353.217 1414.986 1353.217 2146.388" fill="#fff" opacity="0.71"/><polygon points="1353.217 2146.388 1200.251 2149.226 1200.251 1639.787 1353.217 1638.53 1353.217 2146.388" fill="#fff"/><polygon points="1564.466 2142.47 1412.815 2145.283 1412.815 1414.767 1564.466 1414.212 1564.466 2142.47" fill="#fff" opacity="0.71"/><polygon points="1564.466 2142.47 1412.815 2145.283 1412.815 1520.984 1564.466 1520.101 1564.466 2142.47" fill="#fff"/><polygon points="1773.907 2138.585 1623.554 2141.374 1623.554 1413.995 1773.907 1413.444 1773.907 2138.585" fill="#fff" opacity="0.71"/><polygon points="1773.907 2138.585 1623.554 2141.374 1623.554 1694.586 1773.907 1693.172 1773.907 2138.585" fill="#fff"/><polygon points="1981.562 2134.733 1832.49 2137.498 1832.49 1413.229 1981.562 1412.683 1981.562 2134.733" fill="#fff" opacity="0.71"/><polygon points="1981.562 2134.733 1832.49 2137.498 1832.49 1886.046 1981.562 1884.051 1981.562 2134.733" fill="#fff"/><path d="M2235.1828,2999.1775l-1583.7859-13.5v39.9443c0,10.8415,6.9081,20.0606,16.2635,21.7033l447.8474,78.6576a62.87487,62.87487,0,0,0,16.0678.7384l1086.3965-89.6824c9.6989-.8005,17.2107-10.0482,17.2107-21.187Z" transform="translate(-454.54567 -455)" fill="#26264f"/><path d="M1660.4333,2935.1649l-992.6588,73.0737c-17.7629,1.3073-32.2054-12.5869-32.2054-31.0374V2237.9965c0-18.4505,14.4425-33.4077,32.2054-33.4077h992.6588c14.6339,0,26.4659,13.5206,26.4659,30.2002v668.2272C1686.8992,2919.6951,1675.0672,2934.0874,1660.4333,2935.1649Z" transform="translate(-454.54567 -455)" fill="#26264f"/><path d="M1676.2612,2935.1649l-992.6586,73.0737c-17.7635,1.3073-32.2057-12.5869-32.2057-31.0374V2237.9965c0-18.4505,14.4422-33.4077,32.2057-33.4077h992.6586c14.6342,0,26.4658,13.5206,26.4658,30.2002v668.2272C1702.727,2919.6951,1690.8954,2934.0874,1676.2612,2935.1649Z" transform="translate(-454.54567 -455)" fill="url(#linear-gradient-4)"/><path d="M1645.3371,2888.0536,720.7795,2951.528c-14.4554.9921-26.202-10.412-26.202-25.4745V2278.879c0-15.0625,11.7466-27.3241,26.202-27.3865l924.5576-3.9857c12.0719-.052,21.8366,11.0275,21.8366,24.7472v589.46C1667.1737,2875.4327,1657.409,2887.2252,1645.3371,2888.0536Z" transform="translate(-454.54567 -455)" fill="url(#linear-gradient-5)"/><path d="M1214.9897,2224.8073c0,6.8686-5.1092,12.4529-11.4183,12.4728-6.3169.0202-11.4432-5.5441-11.4432-12.4283,0-6.8838,5.1263-12.4681,11.4432-12.4731C1209.8805,2212.3743,1214.9897,2217.9386,1214.9897,2224.8073Z" transform="translate(-454.54567 -455)" fill="#fff"/><path d="M683.5989,3008.2386l987.6365-72.7038,5.0258-.3699a26.64386,26.64386,0,0,0,17.4834-8.8485c-71.0716-3.8895-115.2152-29.1109-143.6914-55.1715-57.1854-52.3361-47.2665-103.9471-108.9347-138.3567-76.9167-42.9194-137.3961,11.4644-195.7636-42.1935-35.3849-32.5314-18.0126-56.79-61.5542-105.4036-48.2256-53.844-79.6231-35.7447-128.0893-84.2045-61.2811-61.274-30.6321-108.9469-83.4188-152.94-64.0375-53.3702-133.0992-3.9729-194.0581-55.1563-26.2921-22.0756-40.7191-54.1696-48.2518-88.3019H683.603c-17.7632,0-32.2061,14.9576-32.2061,33.4081v739.2047C651.3969,2995.6504,665.8368,3009.5436,683.5989,3008.2386Z" transform="translate(-454.54567 -455)" fill="#fff" opacity="0.48" style="mix-blend-mode:soft-light"/><path d="M1715.8259,2931.1114l-1064.429,76.917,464.1109,81.5138a62.88856,62.88856,0,0,0,16.0678.7387l1103.6072-91.1034-502.4249-67.5434A82.45283,82.45283,0,0,0,1715.8259,2931.1114Z" transform="translate(-454.54567 -455)" fill="url(#linear-gradient-6)"/><polygon points="352.168 2553.69 1238.337 2488.7 1512.598 2525.273 634.063 2594.745 352.168 2553.69" fill="#26264f"/><path d="M864.7212,747.7498V1747.959c0,33.2077,28.1184,60.2867,62.7623,60.4851l2058.2281,11.7861a57.155,57.155,0,0,0,57.5971-57.1983V806.03Z" transform="translate(-454.54567 -455)" fill="url(#linear-gradient-7)"/><path d="M2985.7116,682.8565,927.4835,622.614c-34.6439-1.014-62.7623,25.0813-62.7623,58.2886v102.489l2178.5875,56.7403V742.0701C3043.3087,710.298,3017.5383,683.7879,2985.7116,682.8565Z" transform="translate(-454.54567 -455)" fill="url(#linear-gradient-8)"/><path d="M2503.0938,1294.8479l114.7819-384.9987c173.1255,58.1398,297.8692,217.5446,298.7972,402.6448Z" transform="translate(-454.54567 -455)" fill="#fff"/><g opacity="0.71"><path d="M2810.1185,1335.1463c-6.4029,88.0815-50.0846,165.7294-115.9711,218.4438l-179.9597-231.2798Z" transform="translate(-454.54567 -455)" fill="#fff"/><path d="M2477.3929,1281.1738c-69.6728-65.6007-153.8563-145.0345-220.8901-208.5695,59.4623-53.2504,139.7164-84.8993,227.7715-82.9356a342.67,342.67,0,0,1,77.3325,10.5797Z" transform="translate(-454.54567 -455)" fill="#fff"/><path d="M2462.8693,1305.218,2209.5808,1480.86c-35.5418-51.3133-56.3047-112.8398-56.3047-178.7456,0-81.2769,31.5663-154.8716,83.4776-210.2122q27.87315,26.3952,61.8528,58.4877C2367.0567,1215.0386,2435.7312,1279.6825,2462.8693,1305.218Z" transform="translate(-454.54567 -455)" fill="#fff"/><path d="M2470.1881,1333.9432l-4.884,290.462c-96.25-6.2099-181.7631-52.2764-238.851-121.2814Z" transform="translate(-454.54567 -455)" fill="#fff"/><path d="M2498.1702,1346.662l173.7795,223.1795c-50.6748,33.8717-112.0201,54.1024-178.4583,55.2332Z" transform="translate(-454.54567 -455)" fill="#fff"/></g><polygon points="1585.517 658.746 540.457 637.519 540.457 539.67 1585.517 562.964 1585.517 658.746" fill="#fff" opacity="0.71"/><polygon points="1585.517 832.064 540.457 814.58 540.457 716.731 1585.517 736.283 1585.517 832.064" fill="#fff" opacity="0.71"/><polygon points="1585.517 1005.382 540.457 991.64 540.457 893.791 1585.517 909.601 1585.517 1005.382" fill="#fff" opacity="0.71"/><polygon points="1585.517 1178.7 540.457 1168.7 540.457 1070.851 1585.517 1082.919 1585.517 1178.7" fill="#fff" opacity="0.71"/><path d="M1008.697,704.9557c0,14.7206-12.4404,26.3167-27.7945,25.8999-15.3631-.4174-27.8251-12.7022-27.8251-27.4394,0-14.7382,12.462-26.3329,27.8251-25.8996C996.2566,677.9499,1008.697,690.234,1008.697,704.9557Z" transform="translate(-454.54567 -455)" fill="url(#linear-gradient-9)"/><path d="M2217.6704,3190.4569s-90.7248,41.2341-92.2063,47.8156c-1.4828,6.5828,58.3446-2.2063,82.7672-1.2574,24.4233.9496,44.5142-6.2686,42.3032-16.6127-2.2114-10.3465-10.7602-36.3649-10.7602-36.3649Z" transform="translate(-454.54567 -455)" fill="url(#linear-gradient-10)"/><path d="M2214.3505,3156.9942l5.5188,40.847s14.3619,5.1129,24.0098-.9314l4.117-44.8007Z" transform="translate(-454.54567 -455)" fill="url(#linear-gradient-11)"/><path d="M2641.6031,3157.9735l10.5533,16.9411a20.19874,20.19874,0,0,1,2.4155,15.84c-3.6887,14.0875-11.0595,41.5429-14.2728,48.7014-4.3782,9.7508-63.0876,15.544-63.0876,15.544s-5.236-7.3674,6.9544-16.2669c12.189-8.8961,20.0245-10.2968,24.3267-23.4301,4.3003-13.1302,7.1714-50.2743,7.1714-50.2743Z" transform="translate(-454.54567 -455)" fill="url(#linear-gradient-12)"/><path d="M2597.6801,3114.9229c3.8548,3.0725,22.71,60.3062,22.71,60.3062s6.1046,7.8051,17.7-3.713c11.5931-11.5192,5.2462-5.1665,5.2462-5.1665l-2.1733-56.2919Z" transform="translate(-454.54567 -455)" fill="url(#linear-gradient-13)"/><path d="M2164.4329,2336.3435c-4.7862,121.8463-4.9813,254.2267,2.0301,395.6503,7.8928,159.2542,23.7561,306.445,43.7472,439.8722,7.4315.2382,15.241.2777,23.3987.0476q8.26155-.22935,16.004-.7758a1013.20847,1013.20847,0,0,0,33.617-107.5097,1034.17165,1034.17165,0,0,0,23.4712-125.8826c17.471-138.0085-3.0034-150.0487,11.1753-252.3268,12.5562-90.5831,30.4148-94.1193,51.3771-222.7252,22.7444-139.5436,5.8127-160.4775-2.4209-168.04C2331.7797,2262.4579,2249.4411,2284.3759,2164.4329,2336.3435Z" transform="translate(-454.54567 -455)" fill="url(#linear-gradient-14)"/><path d="M2366.8326,2294.6545c-33.4327-30.7094-109.8915-12.1175-190.6467,34.7498,92.9014,100.3708,103.0289,165.4841,91.8924,207.7326-12.5879,47.7498-50.8561,61.5012-50.7106,113.7142.1795,64.1617,58.0878,81.1585,56.8574,149.0553-.815,44.8962-26.2604,44.4308-32.2695,99.8827-7.1106,65.6115,26.1328,88.2188,15.3659,136.7637-4.633,20.8853-17.8547,48.1739-55.5087,76.2859,2.7142,19.9344,5.4979,39.6683,8.3997,59.03,7.4289.2339,15.2387.2757,23.3964.0439,5.5077-.1519,10.8473-.4195,16.0033-.7748a1013.02464,1013.02464,0,0,0,33.6177-107.5077,1034.24509,1034.24509,0,0,0,23.4712-125.8846c17.4699-138.0082-3.0034-150.0487,11.1753-252.3268,12.5562-90.5831,30.4148-94.1216,51.3764-222.7269C2391.9969,2323.1485,2375.0662,2302.2149,2366.8326,2294.6545Z" transform="translate(-454.54567 -455)" opacity="0.3" fill="url(#linear-gradient-15)" style="mix-blend-mode:multiply"/><path d="M2221.9787,2334.2961a2738.96037,2738.96037,0,0,1,243.431,437.0707,2736.84622,2736.84622,0,0,1,131.6512,365.7315,48.86985,48.86985,0,0,0,26.7773,4.1514,49.81832,49.81832,0,0,0,30.3335-16.388,787.93991,787.93991,0,0,0,6.9544-194.2892c-2.7459-30.9319-7.6053-82.4426-27.3224-146.0323-22.0816-71.2312-37.2656-75.2348-66.0765-150.5934-29.9039-78.2213-22.6607-97.7409-51.2977-195.6283a1291.54756,1291.54756,0,0,0-63.9522-171.6346Q2337.2284,2300.48715,2221.9787,2334.2961Z" transform="translate(-454.54567 -455)" fill="url(#linear-gradient-16)"/><path d="M1843.6232,1501.1355s-15.5214-18.5767-25.414-32.4173c-9.8916-13.8415-55.5042-52.3409-55.5042-52.3409s-3.2731,6.3389,6.578,16.1522c9.8525,9.8126,30.5009,26.5485,25.9979,33.9169-4.5031,7.3695-17.4858,14.062-7.717,27.5779,9.7701,13.5155,26.0329,3.7856,34.6904,14.6092,8.6592,10.8237,17.5448,22.6422,17.5448,22.6422Z" transform="translate(-454.54567 -455)" fill="url(#linear-gradient-17)"/><path d="M1845.8045,1481.6213q-15.53535,19.4907-31.0708,38.9819c13.2415,57.2938,41.4713,143.6292,107.1051,227.4932,69.5674,88.8893,217.9528,222.0158,310.3261,178.3733,56.3023-26.5995,132.3126-117.8818,105-161.8915-26.2577-42.3113-139.8902-22.3101-217.9303-39.9376C2042.7388,1707.3614,1943.453,1651.6847,1845.8045,1481.6213Z" transform="translate(-454.54567 -455)" fill="url(#linear-gradient-18)"/><path d="M2559.039,1819.5307s60.5283,206.0142,23.0316,285.2823c-37.4984,79.2681-157.0719-7.7828-157.0719-7.7828Z" transform="translate(-454.54567 -455)" fill="url(#linear-gradient-19)"/><path d="M2547.8374,1819.7746s60.5277,206.0146,23.0309,285.283c-37.4977,79.2674-157.0716-7.7831-157.0716-7.7831Z" transform="translate(-454.54567 -455)" opacity="0.3" fill="url(#linear-gradient-20)" style="mix-blend-mode:multiply"/><path d="M2370.818,1743.3507c-77.7509-1.414-137.6319,1.1237-170.7363,35.6795-34.9641,36.5002,2.0359,76.0386-3.6884,169.6446-8.7635,143.3087-99.1573,180.2473-102.8521,325.523a370.66365,370.66365,0,0,0,14.8516,112.665c20.5485,24.4782,54.0595,58.9247,103.0238,87.2709,71.2537,41.2506,111.87,32.9019,213.4626,58.3395,166.1766,41.6084,182.0469,95.1283,263.6593,79.6255,82.4811-15.6679,153.5917-86.9169,143.9853-124.9819-5.7547-22.7967-38.9846-15.5788-78.168-49.6865-50.5017-43.956-32.3414-87.362-71.0452-134.9373-55.5936-68.3351-130.007-24.1971-177.4041-83.4401-47.9438-59.9276-32.0725-180.4234,5.7955-246.7401,24.7337-43.3152,34.6314-93.6593,55.4944-138.9656a31.15279,31.15279,0,0,0,2.612-17.533c-4.1812-29.119-53.195-43.8949-90.3104-54.7102C2422.8913,1744.6101,2377.2132,1743.4647,2370.818,1743.3507Z" transform="translate(-454.54567 -455)" fill="url(#linear-gradient-21)"/><path d="M2295.1334,1741.7862l15.218-5.0487s4.4599,20.6558,53.7788,22.1734c27.3413-.596,44.6856-16.3006,44.6856-16.3006l10.634,7.4025s-22.3418,29.1909-58.8845,29.2573C2313.4031,1779.3555,2295.1334,1741.7862,2295.1334,1741.7862Z" transform="translate(-454.54567 -455)" fill="url(#linear-gradient-22)"/><path d="M2307.6136,1675.0966c-4.1703-22.5966,8.5057-42.012,11.2894-46.1921,11.6592-17.4938,14.4442-19.774,19.496-22.5284l6.9894-3.4782s.3986-.1177.8133-.2237c4.3849-1.1244,18.8977-.2413,21.7722.6516,9.1836,2.8566,15.6716,41.9236,7.8982,95.6119q.55725,6.32235,1.1129,12.6439c20.9053-2.8907,26.9552-.8973,28.028,1.9016,2.3251,6.0658-12.2352,41.4923-32.148,48.4665-24.9723,8.7449-59.7596-14.0616-61.8495-22.3114-.8456-3.3388-.6965-.4704,16.3088-10.3175,1.5654-4.9363,6.4289-18.3054,7.993-23.2414C2331.7122,1703.7694,2310.6855,1691.7428,2307.6136,1675.0966Z" transform="translate(-454.54567 -455)" fill="url(#linear-gradient-23)"/><path d="M2336.1086,1656.9129c4.6107-5.2559,11.3252.6915,10.7019,7.9772-.6226,7.2868-8.3693,14.2141-15.0851,12.1499C2325.0113,1674.9758,2329.9035,1663.9847,2336.1086,1656.9129Z" transform="translate(-454.54567 -455)" fill="url(#linear-gradient-24)"/><path d="M3076.2562,1418.5867c-101.422-57.3782-269.1245,21.2815-345.0524,118.0141-35.2807,44.9495-46.844,88.3528-99.1377,108.5132-39.7533,15.3261-109.0697,20.832-157.112-12.1144-6.0524-4.1501-30.6059-21.8251-65.6813-42.7921-15.4641-9.2424-30.6089-17.7116-48.9343-14.8317-4.6545.7323-20.1695,3.0776-26.8519,15.7354-5.4159,10.2567-3.0355,24.2943,2.4111,33.211,3.2589,5.3315,5.261,5.3605,6.2224,9.2278,2.6987,10.8665-15.1792,21.7317-12.3773,26.7402,2.0012,3.5795,11.6309-1.0657,14.913,3.1786,3.5966,4.6518-6.0165,12.7441-6.5136,27.5126-6.9915,8.8344-7.8439,25.492-3.3989,45.9829,6.5352,30.1229,17.1041,52.9064,28.3897,68.9955,54.3302,77.465,93.1927,132.8744,150.372,152.3984,75.7012,25.849,117.1617-33.8549,270.341-90.4872,209.7486-77.544,285.9768-22.5207,346.5429-96.438C3206.0138,1679.1377,3181.5585,1478.158,3076.2562,1418.5867Z" transform="translate(-454.54567 -455)" fill="#26264f"/><g opacity="0.3" style="mix-blend-mode:multiply"><path d="M2630.142,2489.0889c-78.1896-51.9518-148.9692,7.4743-204.2433-38.2952-45.5202-37.6942-8.1942-86.841-57.4429-153.1827-54.0029-72.745-128.9407-54.1419-146.8-108.5042-18.4587-56.1859,55.5943-94.316,57.4436-172.3297.9435-39.8138-16.932-91.6657-88.3393-153.857,3.8524,22.6945,7.7986,50.3533,5.6338,85.7547-8.7641,143.3087-99.1579,180.2473-102.8527,325.523a370.66365,370.66365,0,0,0,14.8516,112.665c20.5485,24.4782,54.0595,58.9247,103.0238,87.2709,71.2537,41.25,111.87,32.9019,213.463,58.3395,166.1769,41.6084,182.0469,95.1283,263.6589,79.6255,23.7713-4.5152,46.5822-13.663,66.8047-25.2861-23.7682-3.6993-41.4868-11.7828-54.9929-21.1327C2664.6431,2540.9607,2670.9154,2516.1794,2630.142,2489.0889Z" transform="translate(-454.54567 -455)" opacity="0.3" fill="url(#linear-gradient-25)" style="mix-blend-mode:multiply"/></g><path d="M1745.9187,1136.5912c0,305.7853-239.1058,546.3314-544.7102,536.9473-318.0428-9.7667-585.5279-284.4447-585.5279-613.1448,0-328.6991,267.4851-567.3109,585.5279-534.194C1506.8129,558.021,1745.9187,830.8056,1745.9187,1136.5912Z" transform="translate(-454.54567 -455)" fill="url(#linear-gradient-26)"/><path d="M1828.4993,1110.2252c0,305.7853-239.1065,546.3311-544.7102,536.9463-318.0435-9.7667-585.5289-284.444-585.5289-613.1438,0-328.7001,267.4854-567.3116,585.5289-534.1944C1589.3928,531.6544,1828.4993,804.4399,1828.4993,1110.2252Z" transform="translate(-454.54567 -455)" fill="url(#linear-gradient-27)"/><path d="M1804.5121,1108.6074c0,292.3204-228.7803,521.8845-520.723,512.4316-303.274-9.82-557.9035-271.957-557.9035-585.1492,0-313.1919,254.6295-540.9955,557.9035-509.924C1575.7318,555.8761,1804.5121,816.2877,1804.5121,1108.6074Z" transform="translate(-454.54567 -455)" fill="url(#linear-gradient-28)"/><path d="M1787.3324,1107.4496c0,282.6761-221.373,504.3971-503.5433,494.9236-292.7415-9.8288-538.229-263.0097-538.229-565.1565,0-302.1472,245.4875-522.2278,538.229-492.5854C1565.9594,573.2043,1787.3324,824.7745,1787.3324,1107.4496Z" transform="translate(-454.54567 -455)" fill="url(#linear-gradient-29)"/><path d="M1480.5624,1109.4072q-23.32365-27.8388-72.6138-40.4677,22.6935-8.6412,38.718-20.4632a118.30667,118.30667,0,0,0,26.1308-25.8625,98.45356,98.45356,0,0,0,14.8398-30.2549,120.02978,120.02978,0,0,0,4.7075-33.6824q0-32.13285-10.2655-58.4627a111.258,111.258,0,0,0-33.0277-45.4183q-22.86405-19.11465-59.4178-30.5788a254.11176,254.11176,0,0,0-26.2161-6.5639v-85.255l-65.1343-3.2723v81.4356l-55.0622-2.1125V726.3593l-67.4712-3.3897v82.8903l-72.5131-2.782-26.9022-1.0323v45.4179l26.9022.8596v460.0765l-26.9022.8953v45.4176l26.9022-1.0678,72.5131-2.8781v73.6375l67.4712-3.3897v-72.9256l55.0622-2.1857v72.3448l65.1343-3.272v-75.415a218.89792,218.89792,0,0,0,33.8309-9.7168q35.14-13.4175,58.7739-35.6127a147.24523,147.24523,0,0,0,35.6505-50.984,158.62967,158.62967,0,0,0,12.0783-61.9675Q1503.7512,1137.08915,1480.5624,1109.4072Zm-103.773-138.1961q0,19.25685-5.7432,31.904a45.64223,45.64223,0,0,1-16.765,19.8686q-11.0394,7.21965-26.8897,10.0441a198.52693,198.52693,0,0,1-35.8294,2.7287l-63.343-.35V901.7823l71.1785,1.7659q20.2419.5022,34.8676,4.1544,14.5908,3.6396,24.0409,11.5114a46.41852,46.41852,0,0,1,13.9593,20.4885Q1376.78415,952.32635,1376.7894,971.2111Zm10.0718,234.4454a55.73726,55.73726,0,0,1-11.4632,22.3837q-8.35665,10.0083-23.2178,16.5689-14.91645,6.587-38.5793,7.201l-85.3818,2.2225V1119.2937l84.6731-.5574q22.62465-.149,37.3608,4.1305,14.7012,4.26255,23.5789,12.1846a42.8229,42.8229,0,0,1,12.5089,19.4724,86.63573,86.63573,0,0,1,3.6395,26.0575A102.25481,102.25481,0,0,1,1386.8612,1205.6565Z" transform="translate(-454.54567 -455)" fill="url(#linear-gradient-30)"/><path d="M1192.6668,1176.6722c17.0126-168.0305,171.4399-239.1635,151.2875-393.7261-12.4215-95.2626-84.6249-175.5454-165.1706-238.2297C934.4756,570.3379,745.5598,772.6317,745.5598,1037.217c0,302.1482,245.4878,555.3277,538.2289,565.1565a508.07616,508.07616,0,0,0,83.1752-4.0613C1250.7046,1482.6239,1178.0511,1321.0314,1192.6668,1176.6722Z" transform="translate(-454.54567 -455)" opacity="0.3" fill="url(#linear-gradient-31)" style="mix-blend-mode:multiply"/></g></g></svg>