<svg id="Layer_1" data-name="Layer 1" xmlns="http://www.w3.org/2000/svg" viewBox="0 0 251.75278 348.16505">
  <path d="M217.021,167.042c18.631-9.483,30.288-26.184,27.565-54.007-3.667-38.023-36.526-50.773-78.006-54.404L166.572,5.89H134.433l-.009,51.354c-8.456,0-17.076.166-25.657.338L108.76,5.897,76.65,5.894l-.006,52.728c-6.959.142-13.793.277-20.466.277v-.156l-44.33-.018.006,34.282s23.734-.446,23.343-.013c13.013.009,17.262,7.559,18.484,14.076l.01,60.083V251.55c-.573,4.09-2.984,10.625-12.083,10.637.414.364-23.379-.004-23.379-.004l-6.375,38.335H53.671c7.792.009,15.448.13,22.959.19l.028,53.338,32.102.009-.009-52.779c8.832.18,17.357.258,25.684.247l-.009,52.532h32.138l.018-53.249c54.022-3.1,91.842-16.697,96.544-67.385C266.916,192.612,247.692,174.396,217.021,167.042ZM109.535,95.321c18.126,0,75.132-5.767,75.14,32.064-.008,36.269-56.996,32.032-75.14,32.032Zm-.014,167.126.014-70.672c21.778-.006,90.085-6.261,90.094,35.32C199.638,266.971,131.313,262.431,109.521,262.447Z" transform="translate(-11.848 -5.89)" fill="#df33ff"/>
</svg>
